<svg id="svgexport-15_10_" data-name="svgexport-15 (10)" xmlns="http://www.w3.org/2000/svg" width="29.236" height="29.236" viewBox="0 0 29.236 29.236">
  <path id="Path_194" data-name="Path 194" d="M14.618,0A14.618,14.618,0,1,0,29.236,14.618,14.618,14.618,0,0,0,14.618,0Zm.522,4.214,5.082-2.031a13.674,13.674,0,0,1,1.67.9l.013.008a13.722,13.722,0,0,1,1.5,1.1l.041.036q.32.273.623.564c.025.025.052.049.078.074q.317.31.615.639l.049.057c.174.195.341.4.5.6.039.049.078.1.116.146.176.228.346.46.507.7l-1.013,4.307-4.984,1.662-4.8-3.842ZM3.8,6.314l.115-.146q.24-.3.5-.6l.054-.062q.3-.329.612-.638c.024-.024.049-.049.074-.071q.3-.29.617-.561L5.822,4.2a13.774,13.774,0,0,1,1.49-1.1l.019-.012a13.688,13.688,0,0,1,1.66-.9L14.1,4.214V9.136l-4.8,3.841L4.311,11.318,3.3,7.012q.242-.356.506-.7ZM3.216,22.1q-.215-.328-.411-.668l-.032-.055q-.195-.338-.369-.688l0-.007a13.576,13.576,0,0,1-.642-1.511v0c-.087-.244-.166-.493-.239-.744l-.026-.093q-.1-.355-.182-.715c0-.024-.011-.046-.015-.069a13.562,13.562,0,0,1-.257-1.65l2.975-3.57,4.95,1.65L10.4,19.717,8.04,22.858Zm14.647,5.773c-.244.06-.494.113-.744.159l-.106.019c-.213.038-.428.071-.644.1l-.172.022c-.2.023-.4.041-.605.055l-.191.015c-.259.016-.52.025-.783.025q-.362,0-.719-.019c-.029,0-.056,0-.085-.007q-.318-.018-.634-.049l-.024,0a13.884,13.884,0,0,1-1.374-.219L8.9,23.451l2.323-3.1h6.789l2.361,3.119Zm10.08-10.327c0,.023-.011.046-.016.069q-.081.36-.182.715l-.026.093q-.109.375-.239.744v0a13.531,13.531,0,0,1-.642,1.511l0,.007q-.174.349-.369.688l-.032.055q-.194.34-.41.667l-4.808.758L18.84,19.715l1.436-5.744,4.95-1.65L28.2,15.89a13.53,13.53,0,0,1-.257,1.651Zm0,0" fill="#2f2f2f"/>
</svg>
