<svg xmlns="http://www.w3.org/2000/svg" width="25.775" height="25.775" viewBox="0 0 25.775 25.775">
  <g id="svgexport-15_25_" data-name="svgexport-15 (25)">
    <path id="Path_25683" data-name="Path 25683" d="M12.887,25.775a12.887,12.887,0,0,1-9.113-22A12.887,12.887,0,0,1,22,22,12.8,12.8,0,0,1,12.887,25.775Zm0-24.164A11.276,11.276,0,1,0,24.164,12.887,11.289,11.289,0,0,0,12.887,1.611Z" fill="#2f2f2f"/>
    <path id="Path_25684" data-name="Path 25684" d="M187.625,103.249a2.014,2.014,0,1,1,2.014-2.014.805.805,0,1,0,1.611,0A3.63,3.63,0,0,0,188.43,97.7v-.9a.805.805,0,0,0-1.611,0v.9a3.624,3.624,0,0,0,.805,7.158,2.014,2.014,0,1,1-2.014,2.014.805.805,0,1,0-1.611,0,3.63,3.63,0,0,0,2.819,3.533v.9a.805.805,0,0,0,1.611,0v-.9a3.624,3.624,0,0,0-.805-7.158Z" transform="translate(-174.737 -91.167)" fill="#2f2f2f"/>
  </g>
</svg>
