<svg xmlns="http://www.w3.org/2000/svg" width="137" height="158.916" viewBox="0 0 137 158.916">
  <g id="Layer_1-2" transform="translate(81.845 57.3)">
    <g id="Group_248" data-name="Group 248" transform="translate(-74.845 -57.3)">
      <path id="Path_1" data-name="Path 1" d="M34.221,115.334c2.264-1.815,4.71-2.3,6.86-3.379,5.984-3,11.952-6.036,17.925-9.068a4.808,4.808,0,0,0,.722-.455c1.581-1.16,3.845-2.167,3.533-4.386-.33-2.327-2.907-2.964-4.7-4.107-1-.631-1.627.228-2.219.694-14.836,11.844-31.981,20.029-47.875,30.2A11.6,11.6,0,0,1,3.11,127c1.405-1.439,2.332-2.4,3.265-3.351q17.74-18,35.5-35.98c1.752-1.769,2.736-3.186-.034-4.921a6.424,6.424,0,0,1-2.412-3.089c-1.075-2.7-1.3-5.41.666-7.742s4.648-2.321,7.276-1.348C59.324,75,68.147,83.387,75.622,93.37c2.213,2.952,1.7,5.956-.495,8.863a22.855,22.855,0,0,1-11.679,8.072c-8.339,2.639-16.713,5.2-25.564,5.552a11.715,11.715,0,0,1-3.646-.535Z" transform="translate(-3.11 -30.161)" fill="#fff"/>
      <path id="Path_2" data-name="Path 2" d="M189.821,38.79a17.424,17.424,0,0,1-.125,8.015c-2.281,7.389-5.939,13.812-12.361,18.442-7.822,5.637-13.886,5.211-20.479-1.809-3.652-3.885-6.013-8.425-5.871-13.965a6.753,6.753,0,0,1,.484-2.48c.8-1.894,1.86-3.635,4.01-3.976,2.213-.353,3.726,1.115,4.955,2.73,1.445,1.9,2.088,4.2,2.89,6.411a12.785,12.785,0,0,0,3.038,5.029c2.15,2.071,4.323,2.258,6.912.791,7.276-4.13,12.077-9.7,16.542-19.187Z" transform="translate(-66.863 -16.726)" fill="#fff"/>
      <path id="Path_3" data-name="Path 3" d="M138,17.391c-.011-6.007,4.551-10.4,10.865-10.461a10.522,10.522,0,0,1,10.751,10.376c.006,5.922-4.8,10.45-11.246,10.615-5.364.137-10.359-4.938-10.37-10.529Z" transform="translate(-61.267 -2.989)" fill="#fff"/>
      <path id="Path_4" data-name="Path 4" d="M95.452,13.022a15.147,15.147,0,0,0-1.627-2.645c-3.868-4.943-9.1-7.9-14.984-9.6C71.674-1.3,65.894.832,61.5,6.93c-5.1,7.088-5.211,15.08-3.885,23.278-.37,1.837.552,3.47.9,5.222.228-1.559.461-3.117.688-4.676h0c.41-1.138.842-2.27,1.229-3.413,1.416-4.181,2.725-8.408,5.4-12.014,4.136-5.569,8.305-6.064,13.607-1.6,2.526,2.128,4.983,4.346,7.6,6.36,2.23,1.718,5.956,1.866,7.435.546,1.866-1.661,2.31-4.9.978-7.617Z" transform="translate(-26.302 -0.003)" fill="#fff"/>
    </g>
    <text id="MATCHI" transform="translate(-81.845 86.616)" fill="#fff" font-size="48" font-family="Beiruti" font-weight="500"><tspan x="0" y="0">MATCHI</tspan></text>
  </g>
</svg>
