<svg xmlns="http://www.w3.org/2000/svg" width="202.825" height="77" viewBox="0 0 202.825 77">
  <g id="Wcar" transform="translate(-618.695 1639.581)">
    <g id="Group_77472" data-name="Group 77472" transform="translate(0.416 -9)">
      <path id="Path_141" data-name="Path 141" d="M1837.585-1630.568c-.993.042-2.943.169-3.521.24-.31.035-.929.1-1.373.141-.845.078-1.3.134-2.535.317-.408.056-.979.141-1.268.183s-.767.113-1.056.169-.718.127-.95.169c-1.782.317-1.831.324-3.239.62-.268.056-.62.127-.774.162s-.521.113-.81.176c-.669.141-1.225.268-1.937.451-.31.085-.711.176-.88.211s-.556.127-.845.2c-.584.155-2.105.563-2.429.648-.556.141-2.359.655-2.605.739-.155.049-.472.148-.7.211s-.641.19-.916.282-.732.232-1.021.317c-1.331.4-6.372,2.119-7.816,2.676-.211.077-.5.19-.634.239-1.225.451-1.725.641-2.147.81-.268.113-.669.275-.88.359-2.274.908-3.19,1.289-3.5,1.436a2.655,2.655,0,0,1-.437.183c-.028,0-.373.141-.753.31s-.852.38-1.049.465-.444.2-.563.253-.331.141-.479.2c-.605.232-.007.4.9.246a6.014,6.014,0,0,0,.7-.155c.12-.035.373-.092.563-.127.317-.056.866-.2,2.852-.746,1.45-.394,1.9-.514,2.429-.662,2.859-.789,7-1.894,7.64-2.042.134-.028,1.007-.254,1.937-.486s1.894-.479,2.148-.535.789-.183,1.2-.282.965-.225,1.232-.282.718-.155.986-.218c2.514-.57,7.985-1.62,9.717-1.852.232-.035.88-.127,1.444-.211l1.584-.218,1.056-.141a84.948,84.948,0,0,1,9.788-.641,57.068,57.068,0,0,1,8.274.563c.253.042.824.12,1.267.183s1.035.155,1.3.211.81.148,1.2.211c1.415.225,5.028.965,8.168,1.669.352.078.887.2,1.2.268s.69.162.845.2.824.2,1.479.359,1.373.331,1.584.387c.7.19,1.859.472,2.317.57a3.136,3.136,0,0,1,.521.148,3.057,3.057,0,0,0,.465.134c.38.085.655.155,2.683.7.521.141,1.113.3,1.3.345.528.134,2.38.641,3.084.845.338.1.908.26,1.268.359.577.162,1.169.331,2.056.584.155.042.76.218,1.338.387s1.563.458,2.183.634,1.253.373,1.408.423.613.2,1.021.317,1.119.331,1.584.472c1.077.331,1.669.507,2.105.634.19.049.81.239,1.373.422l2.049.641c1.605.5,2.12.662,2.535.8.211.07.866.275,1.443.458s1.281.4,1.549.493,1.634.535,3.028.986c2.887.937,10.661,3.528,11.745,3.922.289.106.4.183.4.275,0,.113-.063.12-.718.1-.4-.021-1.26-.035-1.923-.042a27.727,27.727,0,0,1-6.126-.683,66.761,66.761,0,0,0-7.922-1.943c-.444-.063-.95-.148-1.127-.183s-1.028-.12-1.9-.183a61.487,61.487,0,0,0-9.506.324l-1.619.141c-.486.035-1.183.1-1.549.141s-1.162.113-1.76.176-1.5.155-2.007.211-1.408.155-2.007.218c-1.126.113-1.352.141-3.485.373-2.774.31-3.831.429-4.4.5-1.408.169-3.112.352-5.035.528-.232.021-1.7.049-3.274.071-2.605.028-5.654-.049-8.21-.218-.521-.035-.725-.021-.768.035-.077.127,0,.169.444.225,1.648.218,2.148.275,3.077.38.584.063,1.19.148,1.352.183a3.673,3.673,0,0,0,.641.063,5.308,5.308,0,0,1,.725.063c.211.042.95.12,1.648.183s1.493.141,1.76.176.937.1,1.479.141,1.176.1,1.408.141c.725.127,4.485.345,6.689.394a71.322,71.322,0,0,0,11.372-.852c1.4-.19,3.359-.451,4.859-.634.8-.1,1.683-.2,1.972-.246a42.969,42.969,0,0,1,7.957-.225,30.013,30.013,0,0,1,5.07,1.458c.366.141.781.289.915.331a1.021,1.021,0,0,1,.317.127,2.9,2.9,0,0,0,.387.162c.176.056.824.289,1.444.507a23.725,23.725,0,0,0,5.492,1.3c.429.042.965.113,1.2.148a4.7,4.7,0,0,0,.81.063c.211-.007.929.007,1.591.035a17.07,17.07,0,0,0,7.034-1.2c.12-.049.387-.162.6-.246a31.678,31.678,0,0,0,3.056-1.57,34.394,34.394,0,0,0,6.379-4.978c.9-.887,1.063-1.084.944-1.105a1.753,1.753,0,0,0-.634.211,29.95,29.95,0,0,1-4.077,1.451c-.31.084-.718.2-.915.254-.493.134-2.359.507-2.993.591-.289.035-.81.113-1.162.162a31.97,31.97,0,0,1-5.316-.035c-2.014-.3-4.429-1-10.6-3.112-.613-.211-1.373-.472-3.45-1.2-.267-.1-.669-.232-.88-.31s-.986-.338-1.725-.6-1.514-.528-1.725-.6-.845-.3-1.408-.493-1.387-.486-1.831-.634-1.268-.437-1.831-.634-1.479-.514-2.042-.7-1.134-.38-1.268-.43c-.613-.211-.986-.338-1.408-.479-.591-.2-4.506-1.486-5.562-1.838-.444-.148-1.063-.345-1.373-.443s-1.07-.338-1.69-.528c-1.063-.331-2.718-.852-3.661-1.141-.366-.113-1.113-.331-3.45-1.021-1.514-.451-3.168-.908-4.013-1.127-.19-.049-.57-.155-.845-.233s-.824-.225-1.232-.331-1.021-.26-1.373-.352c-.753-.2-2.331-.577-4.33-1.049-1.789-.416-2.592-.585-5.844-1.2-.486-.092-1.035-.183-1.232-.211s-.507-.07-.7-.106c-.719-.141-2.134-.352-2.817-.422-2.169-.232-2.655-.282-3.169-.352C1843.584-1630.54,1838.7-1630.611,1837.585-1630.568Z" transform="translate(-1107.624 0)" fill="#fff"/>
      <path id="Path_142" data-name="Path 142" d="M2392.094-1534.685a.279.279,0,0,0-.084.162,9.857,9.857,0,0,1-1.19,2.1,9.52,9.52,0,0,1-4.035,3.119,18.566,18.566,0,0,1-5.725,1.19c-1.373.113-5.929.268-6.034.2a.6.6,0,0,0-.275.007c-.169.042-.2.063-.127.148.141.169.38.211,3.654.662.289.042.74.105,1,.148s1.211.127,2.113.19c4.211.3,7.2-.2,9.034-1.5a4.885,4.885,0,0,0,1.986-3.077c.2-.894.091-3.331-.155-3.415A.187.187,0,0,0,2392.094-1534.685Z" transform="translate(-1648.987 -89.082)" fill="#fff"/>
      <path id="Path_143" data-name="Path 143" d="M905.708-1447.547c-.007.007-1.232.028-2.725.056s-3.042.063-3.45.078-1.26.049-1.9.07-1.655.07-2.253.105l-2.394.141c-2.134.127-6.6.507-8.2.7l-1.232.141c-.577.07-2.535.317-3.521.458-.507.063-2.021.3-2.993.451s-2.669.451-3.521.613c-.824.155-1.3.254-3.133.634-.549.113-1.056.225-1.831.408-.254.063-.8.19-1.232.289-1.31.3-3.612.908-5.07,1.338-1.542.451-1.852.549-2.007.6-.1.035-.775.253-1.514.493-1.436.472-3.042,1.035-4.119,1.443-.366.141-.824.317-1.021.387s-.683.26-1.091.422-.817.317-.915.345a5.2,5.2,0,0,0-1.162.57c-.07.113.479.063,1.162-.105.253-.056.6-.134.774-.169s.951-.19,1.725-.345c2.063-.422,4.866-.958,6.478-1.239.352-.063.986-.176,1.408-.247s1.19-.2,1.69-.289,1.091-.176,1.3-.211c.4-.07,1.451-.24,2.253-.359.253-.035.634-.1.845-.134s.767-.113,1.232-.176,1.148-.155,1.514-.211,1.19-.162,1.831-.246,1.4-.176,1.69-.211.817-.1,1.162-.134.951-.106,1.338-.148c2.824-.3,5.7-.556,8.027-.7.62-.035,1.253-.084,1.408-.106s.824-.049,1.479-.077,1.211-.056,1.232-.07c.134-.07,4.668-.134,9.612-.127,4.485,0,6.386.035,8.52.134,1.514.07,2.859.127,2.993.127s.993.035,1.9.085,1.782.092,1.936.084,1.394.063,2.746.155,4.211.26,6.337.394,4.985.31,6.337.4,2.591.148,2.746.148,1.077.042,2.042.092,2.507.127,3.415.169,2.211.106,2.887.141c1.366.077,5.309.225,5.4.2.028-.007.451.014.937.035,1.732.1,7.365.211,10.809.218,2.253.007,6.633-.077,6.724-.134.021-.007.528-.042,1.127-.063,1.535-.063,5.006-.3,7.781-.535.43-.035,1.359-.113,2.077-.169,1.943-.162,4.07-.359,5-.472.331-.035,1.091-.113,1.69-.169s1.345-.141,1.655-.176,1.042-.12,1.62-.183,1.31-.134,1.619-.169.88-.092,1.268-.134.929-.106,1.2-.141.8-.106,1.162-.148c.634-.07,3.542-.416,4.753-.57.31-.035.817-.1,1.127-.134s.958-.113,1.443-.176,1.134-.141,1.443-.176a22.287,22.287,0,0,0,2.88-.458c.211-.092.211-.092-.239-.1-.416-.007-1.81.077-4.718.267-2.373.155-5.6.331-8.133.437-1.007.035-2.3.1-2.887.127-.922.049-8.583.035-9.717-.021-.549-.028-2.183-.1-4.3-.183-3.352-.141-4.668-.2-6.126-.3-.81-.056-1.669-.106-1.9-.113s-5.887-.394-12.569-.859-12.555-.852-13.062-.873-2.3-.127-3.978-.246-3.331-.218-3.661-.218-1.007-.028-1.507-.07-1.6-.1-2.429-.134-2.218-.1-3.07-.141c-1.922-.1-2.633-.12-4.859-.169-.965-.028-1.852-.056-1.972-.077C916.644-1447.47,905.779-1447.6,905.708-1447.547Z" transform="translate(-232.134 -170.136)" fill="#fff"/>
      <path id="Path_144" data-name="Path 144" d="M909.007-1339.661c-.542.127-1.127.268-1.3.3s-.6.141-.951.218l-.915.2c-.155.035-.486.113-.739.176s-.9.2-1.443.324-1.1.247-1.232.282-.69.162-1.232.282-1.183.268-1.422.324c-.739.169-1.38.317-1.711.387-.176.042-.444.106-.6.141-.268.056-1.472.338-2.288.521-.211.049-.768.176-1.232.275-.951.211-2.267.514-2.64.605-.134.035-.465.113-.739.169-.592.127-2.225.5-2.817.641-.232.056-.824.183-1.324.289-1.5.317-1.443.493.19.6a12.512,12.512,0,0,1,1.31.134c.338.07,4.647.366,5.07.345.134-.007,1.056.007,2.042.035a37.066,37.066,0,0,0,6.267-.3,13.708,13.708,0,0,0,7.633-4.478c1.021-1.148,1.415-1.739,1.155-1.718C910.035-1339.907,909.549-1339.794,909.007-1339.661Z" transform="translate(-264.599 -270.206)" fill="#fff"/>
    </g>
    <text id="السيــــارة_الوطنيــــة_AL_WATANIA_cAR" data-name="السيــــارة الوطنيــــة
AL WATANIA cAR" transform="translate(719.695 -1595.581)" fill="#fff" font-size="20" font-family="Changa-SemiBold, Changa" font-weight="600"><tspan x="-87" y="0">السيــــارة الوطنيــــة</tspan><tspan y="0"></tspan><tspan x="-71" y="21">AL WATANIA cAR</tspan></text>
  </g>
</svg>
