<svg xmlns="http://www.w3.org/2000/svg" width="256" height="87.571" viewBox="0 0 256 87.571">
  <g id="Group_67772" data-name="Group 67772" transform="translate(-1631.171 -172.694)">
    <g id="Group_248" data-name="Group 248" transform="translate(1775.614 172.694)">
      <path id="Path_1" data-name="Path 1" d="M31.243,110.99c2.047-1.641,4.259-2.078,6.2-3.056,5.412-2.711,10.808-5.458,16.209-8.2a4.348,4.348,0,0,0,.653-.412c1.43-1.049,3.477-1.96,3.194-3.966-.3-2.1-2.629-2.68-4.249-3.714-.9-.571-1.471.206-2.006.628-13.416,10.71-28.92,18.112-43.292,27.31a10.493,10.493,0,0,1-4.846,1.96c1.271-1.3,2.109-2.171,2.953-3.03Q22.1,102.23,38.162,85.975c1.584-1.6,2.474-2.881-.031-4.45a5.809,5.809,0,0,1-2.181-2.793c-.972-2.438-1.173-4.892.6-7s4.2-2.1,6.579-1.219C53.944,74.519,61.922,82.1,68.681,91.129c2,2.67,1.533,5.386-.448,8.014a20.668,20.668,0,0,1-10.561,7.3c-7.541,2.387-15.113,4.7-23.117,5.021a10.594,10.594,0,0,1-3.3-.484Z" transform="translate(-3.11 -33.97)" fill="#fff"/>
      <path id="Path_2" data-name="Path 2" d="M186.1,38.79a15.756,15.756,0,0,1-.113,7.248c-2.063,6.682-5.37,12.49-11.178,16.677-7.073,5.1-12.557,4.712-18.519-1.636-3.3-3.513-5.437-7.618-5.309-12.629a6.106,6.106,0,0,1,.437-2.243c.72-1.713,1.682-3.287,3.627-3.6,2-.319,3.369,1.008,4.48,2.469a21.048,21.048,0,0,1,2.613,5.8,11.561,11.561,0,0,0,2.747,4.547c1.944,1.872,3.91,2.042,6.25.715,6.579-3.735,10.921-8.776,14.959-17.351Z" transform="translate(-74.914 -18.838)" fill="#fff"/>
      <path id="Path_3" data-name="Path 3" d="M138,16.39c-.01-5.432,4.115-9.4,9.825-9.46a9.514,9.514,0,0,1,9.722,9.383c.005,5.355-4.336,9.45-10.17,9.6-4.851.123-9.367-4.465-9.378-9.522Z" transform="translate(-68.612 -3.366)" fill="#fff"/>
      <path id="Path_4" data-name="Path 4" d="M91.762,11.776a13.7,13.7,0,0,0-1.471-2.392A25.661,25.661,0,0,0,76.741.7C70.26-1.176,65.034.753,61.062,6.267c-4.614,6.41-4.712,13.637-3.513,21.05-.334,1.662.5,3.138.813,4.722.206-1.409.417-2.819.622-4.228h0c.37-1.029.761-2.052,1.111-3.086,1.281-3.781,2.464-7.6,4.882-10.864,3.74-5.036,7.51-5.484,12.3-1.445,2.284,1.924,4.506,3.93,6.872,5.751,2.016,1.554,5.386,1.687,6.723.494,1.687-1.5,2.088-4.434.885-6.888Z" transform="translate(-29.231 -0.003)" fill="#fff"/>
    </g>
    <text id="MATCHI" transform="translate(1631.171 230.534)" fill="#fff" font-size="47" font-family="Beiruti" font-weight="500"><tspan x="0" y="0">MATCHI</tspan></text>
  </g>
</svg>
