<svg xmlns="http://www.w3.org/2000/svg" width="37.152" height="43.4" viewBox="0 0 37.152 43.4">
  <g id="svgexport-15_14_" data-name="svgexport-15 (14)" transform="translate(19.01) rotate(30)">
    <path id="Path_201" data-name="Path 201" d="M.964,4.643a.566.566,0,0,0-.8,0,.565.565,0,0,0,.4.964.565.565,0,0,0,.4-.964Zm2.464,0a.564.564,0,1,0,.166.4A.57.57,0,0,0,3.428,4.643Zm2.464,0a.564.564,0,1,0,.166.4A.57.57,0,0,0,5.892,4.643Zm2.464,0a.564.564,0,1,0,.166.4A.571.571,0,0,0,8.356,4.643Zm2.464,0a.564.564,0,1,0,.166.4A.57.57,0,0,0,10.82,4.643ZM3.427.165a.564.564,0,0,0-.964.4.565.565,0,1,0,.964-.4Zm2.464,0a.564.564,0,0,0-.964.4.565.565,0,1,0,.964-.4Zm2.464,0a.564.564,0,0,0-.964.4.565.565,0,1,0,.964-.4ZM3.427,9.12a.564.564,0,1,0,.166.4A.57.57,0,0,0,3.427,9.12Zm2.464,0a.564.564,0,1,0,.166.4A.57.57,0,0,0,5.891,9.12Zm2.464,0a.564.564,0,1,0,.166.4A.57.57,0,0,0,8.355,9.12ZM2.093,2.459a.564.564,0,1,0,.166.4A.57.57,0,0,0,2.093,2.459Zm2.464,0a.564.564,0,1,0,.166.4A.57.57,0,0,0,4.557,2.459Zm2.464,0a.564.564,0,1,0,.166.4A.57.57,0,0,0,7.021,2.459Zm2.464,0a.564.564,0,1,0,.166.4A.57.57,0,0,0,9.485,2.459ZM2.093,6.826a.564.564,0,1,0,.166.4A.57.57,0,0,0,2.093,6.826Zm2.464,0a.564.564,0,1,0,.166.4A.57.57,0,0,0,4.557,6.826Zm2.464,0a.564.564,0,1,0,.166.4A.57.57,0,0,0,7.021,6.826Zm2.464,0a.564.564,0,1,0,.166.4.571.571,0,0,0-.166-.4Z" transform="translate(4.982 6.174)" fill="#6D6D6D"/>
    <path id="Path_202" data-name="Path 202" d="M17.867,2.806A10.773,10.773,0,0,0,10.475,0,10.773,10.773,0,0,0,3.082,2.806,9.682,9.682,0,0,0,0,9.979,11.752,11.752,0,0,0,.2,12.12a.565.565,0,0,0,1.11-.206,10.613,10.613,0,0,1-.184-1.934c0-5.045,4.018-8.85,9.345-8.85s9.345,3.8,9.345,8.85a12.722,12.722,0,0,1-2.78,7.6A8.545,8.545,0,0,1,10.475,21.2c-2.93,0-5.9-2.071-7.746-5.4a.565.565,0,1,0-.988.548A13.042,13.042,0,0,0,5.4,20.581c.014.01,2.354,1.761,2.354,8.263v6.442a1.5,1.5,0,0,0,.864,2.733h3.709a1.5,1.5,0,0,0,.864-2.733V28.843c.09-5.376,1.576-7.5,2.3-8.216a12.2,12.2,0,0,0,2.432-2.35,13.885,13.885,0,0,0,3.025-8.3,9.682,9.682,0,0,0-3.082-7.173ZM10.475,22.334c.127,0,.255,0,.382-.01q-.221.685-.395,1.472c-.1-.416-.242-.934-.418-1.475C10.187,22.328,10.331,22.334,10.475,22.334ZM12.329,36.89H8.62a.375.375,0,0,1,0-.75h3.709a.375.375,0,0,1,0,.75ZM10.774,28.82H8.885V28a.381.381,0,0,1,.375-.375h2.428a.381.381,0,0,1,.375.375v7.008H8.885V29.949h1.889a.565.565,0,1,0,0-1.129Zm1.414-2.234a1.5,1.5,0,0,0-.5-.087H9.26a1.5,1.5,0,0,0-.5.087A14.9,14.9,0,0,0,7.57,21.774a8.421,8.421,0,0,0,1.22.371,20.712,20.712,0,0,1,.769,2.787.565.565,0,0,0,.2.33,1.1,1.1,0,0,0,.708.261,1.179,1.179,0,0,0,.726-.255.565.565,0,0,0,.2-.346,15.1,15.1,0,0,1,.717-2.762,8.323,8.323,0,0,0,1.266-.378A14.909,14.909,0,0,0,12.188,26.585Z" transform="translate(0 0)" fill="#6D6D6D"/>
    <path id="Path_203" data-name="Path 203" d="M1.422,12.26q-.176-.434-.32-.88a.565.565,0,0,0-1.074.348q.157.484.348.955A.55.55,0,0,0,1.111,13a.563.563,0,0,0,.311-.735ZM9.871,0c-4.791,0-8.4,3.4-8.4,7.909a11.752,11.752,0,0,0,2.577,7.012,7.635,7.635,0,0,0,5.827,3.272A7.634,7.634,0,0,0,15.7,14.921a11.752,11.752,0,0,0,2.577-7.012C18.275,3.4,14.662,0,9.871,0Zm4.942,14.22a6.546,6.546,0,0,1-4.942,2.844A6.546,6.546,0,0,1,4.929,14.22,10.588,10.588,0,0,1,2.6,7.909a6.543,6.543,0,0,1,2.05-4.823A7.555,7.555,0,0,1,9.871,1.129,7.555,7.555,0,0,1,15.1,3.086a6.543,6.543,0,0,1,2.05,4.823A10.588,10.588,0,0,1,14.813,14.22Z" transform="translate(0.604 2.07)" fill="#6D6D6D"/>
  </g>
</svg>
