<svg xmlns="http://www.w3.org/2000/svg" version="1.1" xmlns:xlink="http://www.w3.org/1999/xlink" width="20" height="20" x="0" y="0" viewBox="0 0 682.667 682.667" style="enable-background:new 0 0 512 512" xml:space="preserve" class=""><g><defs><clipPath id="a" clipPathUnits="userSpaceOnUse"><path d="M0 512h512V0H0Z" fill="#2f2f2f" opacity="1" data-original="#000000" class=""></path></clipPath></defs><g clip-path="url(#a)" transform="matrix(1.33333 0 0 -1.33333 0 682.667)"><path d="M502 176.128h-79.511v159.744H502ZM89.511 176.128H10v159.744h79.511z" style="stroke-linecap: round; stroke-linejoin: round; stroke-miterlimit: 10; stroke-dasharray: none; stroke-opacity: 1;" fill="none" stroke="#2F2F2F" stroke-width="20px" stroke-linecap="round" stroke-linejoin="round" stroke-miterlimit="10" stroke-dasharray="none" stroke-opacity="" data-original="#000000" class="" opacity="1"></path><path d="M502 78.498H10v355.004h492z" style="stroke-linecap: round; stroke-linejoin: round; stroke-miterlimit: 10; stroke-dasharray: none; stroke-opacity: 1;" fill="none" stroke="#2F2F2F" stroke-width="20px" stroke-linecap="round" stroke-linejoin="round" stroke-miterlimit="10" stroke-dasharray="none" stroke-opacity="" data-original="#000000" class="" opacity="1"></path><path d="M0 0c0-41.962-34.017-75.979-75.979-75.979-41.961 0-75.978 34.017-75.978 75.979 0 41.962 34.017 75.979 75.978 75.979C-34.017 75.979 0 41.962 0 0Z" style="stroke-linecap: round; stroke-linejoin: round; stroke-miterlimit: 10; stroke-dasharray: none; stroke-opacity: 1;" transform="translate(331.978 256)" fill="none" stroke="#2F2F2F" stroke-width="20px" stroke-linecap="round" stroke-linejoin="round" stroke-miterlimit="10" stroke-dasharray="none" stroke-opacity="" data-original="#000000" class="" opacity="1"></path><path d="M0 0v-350.459" style="stroke-linecap: round; stroke-linejoin: round; stroke-miterlimit: 10; stroke-dasharray: none; stroke-opacity: 1;" transform="translate(256 431.23)" fill="none" stroke="#2F2F2F" stroke-width="20px" stroke-linecap="round" stroke-linejoin="round" stroke-miterlimit="10" stroke-dasharray="none" stroke-opacity="" data-original="#000000" class="" opacity="1"></path></g></g></svg>